<svg id="Layer_1" data-name="Layer 1" xmlns="http://www.w3.org/2000/svg" width="232.47" height="174.12" viewBox="0 0 232.47 174.12">
  <g>
    <path d="M258.47,196.5a178.51,178.51,0,0,0-35.73-11.06c-52.21-11-103.78-9.28-154.41,8.56-6.87,2.42-13.2,1.64-18.56-3.22s-6.49-11.28-4.66-18.22c2.87-10.87,5.78-21.74,7.24-32.91.37-2.84,1.8-4.51,4.39-4.24,3,.3,3.93,2.61,3.39,5.52-2,10.57-4.33,21-7.25,31.4a20.77,20.77,0,0,0-1,6.31c.27,6.43,5.56,10.07,12.37,8.29,9.6-2.52,19-5.88,28.66-8.09,53.76-12.31,106.94-10.38,159.4,7.06,1.26.42,2.5.88,3.78,1.23,8.5,2.3,14.33-3.19,12.08-11.75-2.36-9-4.8-17.89-6.5-27-6.14-33-3.62-65.57,4.38-97.92.71-2.89,1.61-5.74,2.23-8.64,1.52-7.17-2.72-12.17-10.06-11.66a34.51,34.51,0,0,0-7.75,1.63C190.25,50.58,130,50.2,69.79,32.06c-5.24-1.58-10.76-3.81-15.54.56S51.65,42.71,52.85,48c2.79,12.25,5.72,24.47,6.94,37,.24,2.55-.34,4.44-2.95,4.82-2.83.42-4.19-1.24-4.47-4-1.45-14-5.16-27.61-8.08-41.35-3.16-14.94,8.29-25.43,23.08-21.09C81.68,27.58,96,31.77,110.77,34c45.72,7,90.89,5.23,135.27-8.74,4.1-1.29,8.15-2.78,12.54-2.89,11.75-.28,20,9.27,17.07,20.6-6.35,24.81-10.47,49.83-9.49,75.56a187,187,0,0,0,8.67,51.22c4.24,13-1.64,24.61-13.87,26-.19,0-.33.5-.5.76Z" transform="translate(-43.76 -22.38)" style="fill: #27567d"/>
    <path d="M212.39,86.51c-24.85-6.86-49.14-15.78-75.17-7.43A284,284,0,0,1,89.28,89.75c-3,.42-5.91.92-8.88,1.11a4.05,4.05,0,0,1-4.61-3.6c-.25-2.26,1.51-3.69,3.72-3.85,23.3-1.73,45.37-9.22,68-14.18,12.23-2.69,24.38-1.26,36.37,2.08,9.25,2.58,18.57,4.87,27.82,7.43,7.56,2.09,9.39,6,5.75,12.71-1.32,2.45-.21,2.71,1.61,3.24,4,1.17,8,2.18,11.83,3.71,6.72,2.68,8.77,7.75,5.89,14.34a6.58,6.58,0,0,0-.4,5.14c.77,2.39,1.21,5.46-.56,7.15-5.05,4.81-9.09,10.4-13.52,15.7-2.18,2.6-6.07,2.35-9.42,1.77-3.1-.53-6.19-1.14-9.24-1.9-4.4-1.11-8.69-3.88-10.9,3.59-1.21,4.07-6.45,4.6-10.4,4.19-12.35-1.31-24.75-2.56-36.78-5.84-5.48-1.5-10.31-4.47-15-7.68a21.82,21.82,0,0,0-18.43-3.31c-9.37,2.25-18.24,5.95-27.4,8.78-1.43.44-2.82,1-4.26,1.33-2.22.48-4.08-.23-4.77-2.48a3.3,3.3,0,0,1,2.47-4.26c12.47-3.81,24.21-10,37.37-11.57,5.07-.6,10.31-.07,14.38,2.89,13.5,9.8,29.21,11.9,45.06,13.75,3.28.39,6.56,1.18,9.88.48,1.24-.27,2.81-.45,2.88-2.2.06-1.5-1.36-1.79-2.37-2.17-6.05-2.25-12.13-4.41-18.2-6.61-1.09-.39-2.16-.83-3.25-1.2-2.55-.88-4.08-2.45-3-5.23s3.36-2.23,5.47-1.45A285.14,285.14,0,0,0,202,132.51c4,.91,8.08,1.82,12.12,2.7,2.55.56,4.88.08,5.51-2.73s-2.2-3.06-3.86-3.54c-11.75-3.44-23.56-6.68-35.35-10-2.38-.67-4.76-1.38-7.1-2.19a3.19,3.19,0,0,1-2.37-3.83c.32-2,1.75-2.73,3.53-2.83a8,8,0,0,1,2.93.34c15.29,4.89,31.15,7.83,46.22,13.46,2.55,1,5,.61,5.83-1.93.95-2.8-1.73-3.49-3.79-4.14-13-4.06-26.06-7.58-39.23-10.87-2.08-.52-4.11-1.26-6.19-1.79-2.5-.63-3.83-2.15-3.29-4.67.63-2.92,3-2.76,5.17-2.21,10.73,2.8,21.43,5.7,32.14,8.58,4,1.07,8,2.23,12,3.27,1.7.45,3.45.39,4.11-1.63s-1.2-2.63-2.42-3.18c-9.55-4.31-19.79-6.46-29.83-9.22-6.23-1.71-12.46-3.38-18.72-5-2.34-.6-4.33-1.73-3.81-4.29.59-2.94,3.09-3,5.57-2.42,7.22,1.82,14.42,3.73,21.66,5.47C206.32,90.73,209.77,90.89,212.39,86.51Z" transform="translate(-43.76 -22.38)" style="fill: #27567d"/>
  </g>
</svg>
