<svg id="Layer_1" data-name="Layer 1" xmlns="http://www.w3.org/2000/svg" width="246.76" height="185.35" viewBox="0 0 246.76 185.35">
  <g>
    <path d="M36.62,181.15c-.07-5.24,2.24-11,3.8-16.89a210.16,210.16,0,0,0,6.67-36c.21-2.5.76-4.83,3.79-4.82,3.26,0,4.06,2.3,3.86,5.14-1,14.6-4.65,28.7-8.32,42.79-.67,2.56-1.45,5.09-2,7.68-1.94,10.1,4.92,17.24,14.94,14.94,12.9-3,25.44-7.31,38.44-10a303.37,303.37,0,0,1,148.51,6.32,132,132,0,0,0,14.39,3.8c9.82,1.73,16.49-4.74,14.6-14.46-2.43-12.48-6.63-24.57-8.69-37.15a195.66,195.66,0,0,1-2.52-20.19c-.13-2.45.41-4.47,3.14-4.69s4,1.57,4.18,4c1.64,18.71,6.83,36.67,11.15,54.84,4.15,17.49-8.94,29.44-26.26,24.42-24.88-7.22-50-13.19-75.91-14.88A301.5,301.5,0,0,0,65.71,200.21c-5.82,1.9-11.58,2.91-17.47.47C40.77,197.59,36.47,190.75,36.62,181.15Z" transform="translate(-36.62 -16.77)" style="fill: #27567d"/>
    <path d="M36.75,37.22C36.67,23,48.14,14,61.41,17.67c16.77,4.61,33.47,9.46,50.77,11.75,46.76,6.21,92.93,4.06,138.26-9.83,3.65-1.11,7.23-2.45,11.07-2.75,13.72-1.06,23.76,10.08,20.74,23.43-3.32,14.66-7.38,29.17-9.33,44.12-.37,2.8-2,3.72-4.49,3.29-2.92-.52-3.37-2.64-3-5.28,1.67-12.82,5-25.29,8.08-37.79.24-1,.41-2,.74-2.88,4.28-12.37-4.84-19.77-16.66-16.38-14.48,4.15-28.89,8.46-43.85,10.71-49.35,7.42-98.12,5.85-146.12-8.83-2.21-.67-4.44-1.32-6.7-1.85-11.7-2.79-18.61,4-15.81,15.7C47.62,51.69,50.34,62.26,52.25,73a206.07,206.07,0,0,1,2.93,25.62c.12,2.36-.25,4.43-3.08,4.79s-4.35-1.3-4.48-4c-1-20-5.54-39.26-10.44-58.51A22.8,22.8,0,0,1,36.75,37.22Z" transform="translate(-36.62 -16.77)" style="fill: #27567d"/>
    <path d="M104,110c17-.11,32.39,6.08,47.91,11.87,13.92,5.2,27.55,11.28,42.44,13.59s29,.15,42.81-5.42c1.08-.43,2.1-1,3.19-1.37,2.37-.8,4.43-.18,5.4,2.13,1.07,2.51-.47,4.06-2.7,5-14.58,6.07-29.61,9.37-45.54,7.63-17.35-1.89-33.19-8.74-49.27-14.79-11.31-4.25-22.61-8.52-34.63-10.42a69.18,69.18,0,0,0-32.84,2.85c-2.94,1-5.79,1.59-6.8-2.2-1-3.53,1.9-4.55,4.54-5.26C86.83,111.34,95.26,109.66,104,110Z" transform="translate(-36.62 -16.77)" style="fill: #27567d"/>
    <path d="M126.56,105.07a92.18,92.18,0,0,0-24.23-3.94,81.64,81.64,0,0,0-26,3.43c-2.82.91-5.17,1-6.11-2-1-3.11,1.46-4.4,4-5.18A84.93,84.93,0,0,1,116.45,95c4.06.83,8.11,1.72,12.11,2.8,2.16.59,3.37,2.22,2.75,4.56S129.14,105.58,126.56,105.07Z" transform="translate(-36.62 -16.77)" style="fill: #29577e"/>
    <path d="M203.15,126.69c-3,0-5.47.09-7.94,0-2.17-.1-4-.88-3.94-3.47s1.83-3.69,4.31-3.65a100.69,100.69,0,0,0,27-3.45A80.38,80.38,0,0,0,241,109c2.59-1.41,5.23-2,6.75,1.12,1.44,3-.87,4.57-3.21,5.7A105.29,105.29,0,0,1,203.15,126.69Z" transform="translate(-36.62 -16.77)" style="fill: #29577e"/>
  </g>
</svg>
