<svg id="Layer_1" data-name="Layer 1" xmlns="http://www.w3.org/2000/svg" width="292.83" height="196.58" viewBox="0 0 292.83 196.58">
  <g>
    <path d="M186,11.05c0-.28,0-.57,0-.86h5a5.57,5.57,0,0,0,0,.82Z" transform="translate(-13.09 -10.19)" style="fill: #e0e6ec"/>
    <path d="M73.15,158.58c11.14.15,21.56,3.68,32.06,6.81q8.58,2.56,17.12,5.3c2.62.84,5.45,2.05,4.26,5.48s-3.85,2.73-6.66,1.82c-12.61-4.11-25.06-8.75-38.24-11-10.53-1.79-20.48.28-30.41,3.33a51.84,51.84,0,0,1-8.21,1.95c-2,.27-3.46-1.08-3.82-3.14a3,3,0,0,1,2.33-3.81C52,162.4,62.16,158.67,73.15,158.58Z" transform="translate(-13.09 -10.19)" style="fill: #28567d"/>
    <path d="M166.93,188.44c-8.93-1.78-17.87-3.52-26.79-5.36-2.58-.54-3.59-2.45-2.88-4.85.65-2.19,2.45-2.95,4.74-2.44,8.72,1.94,17.41,4.08,26.36,4.83,2.43.2,4.21,1.47,3.77,4.18S169.73,188.56,166.93,188.44Z" transform="translate(-13.09 -10.19)" style="fill: #2a597f"/>
    <path d="M303.14,136.73c-4.82-15.23-13.66-27.84-25.65-38.35-1.94-1.7-3.94-3.44-6.36-.71-2.18,2.47-.52,4.2,1.23,5.91s3.33,3.24,4.94,4.92a81.38,81.38,0,0,1,16.22,24.26c11.6,27.38.65,53.64-26.26,63.05-7.65,2.68-15.63,3.11-23.63,3.12q-75.19,0-150.38,0c-9.82,0-19.63.3-29.45-.66C34.36,195.39,17,172.31,22.72,143.57c5.8-29,32.73-54.09,64.34-60,2.36-.43,4.73-1.59,7.52-.46-6.13,15.47-7.69,31.08-.9,47.61-2-.56-2.86-.77-3.73-1.07-6.74-2.36-13.41-4.89-20.38-6.55-2.66-.64-4.78,0-5.6,2.65s.54,4,3.11,4.63c20.5,5.06,39.27,14.18,57.51,24.49A43.45,43.45,0,0,0,144,160.5c9.13.49,18.29.86,27.39,1.74a58.49,58.49,0,0,1,27.82,10.24c-2.21,1.84-4.6,2-6.72,2.74-2.47.92-5,1.89-4,5.12s3.59,3.13,6.49,2.15c9.14-3.05,18.24-6.12,26.86-10.51a52.28,52.28,0,0,1,38.76-3.86c4.8,1.32,9.59,2.69,14.42,3.9,2.28.57,4.46.19,5.27-2.41.86-2.76-1.07-4-3.22-4.7-9.2-2.83-18.38-5.8-28.1-6.41-12.93-.8-24.59,3.1-35.69,9.25-1.68.93-3.49,2.77-5.47,1.38-6.18-4.37-12.89-7.8-20.85-11.47,10.27-1.84,19.35-2.66,28.09-5.38C261.49,137.82,272,80.51,249.6,50.06c-6.18-8.4-13.51-16.11-20.73-23.68C218.81,15.83,205.5,11.6,191,11c-1.52-.58-3.11-.19-4.66-.3a67.26,67.26,0,0,0-14.83,1.5c-21.68,5.27-38.77,17.73-53.39,33.92a170,170,0,0,0-18.52,24,6.91,6.91,0,0,1-5.7,3.43,89.64,89.64,0,0,0-41.5,14.57C30.21,102.57,16,122.46,13.09,149.38v9.94c2.24,1.59,1.42,4.19,1.89,6.29a48.14,48.14,0,0,0,17.74,28.5c11.22,8.77,24.19,12.3,38.18,12.34q71.94.23,143.87.16c14,0,28,.68,41.94-.69,22.65-2.22,41.92-17.93,47.48-38.84A53.27,53.27,0,0,0,303.14,136.73ZM132.32,54.81c2.41-.18,4.28,3.12,2.55,5.45a116.55,116.55,0,0,1-11,12.71c-2.13,2.14-3.18-.21-3.59-2C119.23,66.31,127.62,55.17,132.32,54.81Zm-9.88,32.28c3.7-5.87,8.15-11.28,12.31-16.86a3.65,3.65,0,0,1,1.82-1.49c7.44-1.37,13.71-8.37,22.3-4.35A141.87,141.87,0,0,0,172.72,70c13,4.49,25.8,4,38.29-2,1-.48,1.87-1.49,3.46-.9-.23,2.19-.43,4.46-.72,6.71a54.4,54.4,0,0,0,6.5,33.53c.89,1.63,2.49,3.07.69,5.32-15.22,18.93-33.07,33.8-57.69,39.18-13.57,3-26.14.91-38.1-5.47-7.25-3.87-9.64-11.17-11.24-18.52C110.71,113,114.6,99.54,122.44,87.09Zm-24,9a84.67,84.67,0,0,1,12.6-27.35c.51-.75.84-1.9,2.63-1.49.06,4.38-.06,9,3.52,12.59,1.06,1.06-.12,2.11-.71,3-10.27,16.13-14.6,33.21-8.4,52,.13.39-.18.92-.33,1.62-4-1-5.27-4.48-6.68-7.44C96.05,118.4,95.65,107.31,98.45,96.05Z" transform="translate(-13.09 -10.19)" style="fill: #27567d"/>
    <path d="M145.93,141.17c-9.27-.1-20.72-13.5-19.22-22.48.27-1.63,1.06-2.79,2.77-3a3.8,3.8,0,0,1,4.15,2.09,10.93,10.93,0,0,1,.73,3.33c.95,6.43,4.34,10.48,11,11.57,2.94.48,4.94,2.32,4.83,5.34C150.11,140.28,148.19,141.2,145.93,141.17Z" transform="translate(-13.09 -10.19)" style="fill: #2a587e"/>
    <path d="M155.91,131.34c-5.23-.55-8.4-3.16-9.85-7.65A10.11,10.11,0,0,1,149,112.41c1.77-1.61,3.92-2,5.82-.21s1.17,3.64-.49,5.13-2.66,3.08-1.33,5.16,3.17,1.45,4.92.84c2.09-.73,4.45-1.77,5.62.88,1.28,2.91-1,4.63-3.26,5.83A21.06,21.06,0,0,1,155.91,131.34Z" transform="translate(-13.09 -10.19)" style="fill: #2b597f"/>
    <path d="M174.64,91.2c.06,1.93-.54,3.73-2.64,4.14-2.39.48-3.88-1.07-4.18-3.23-.9-6.59-4.87-10.53-10.64-13.23-2.25-1.06-4-2.85-2.27-5.51,1.53-2.35,3.55-1.44,5.66-.44C168.41,76.65,173.92,82.06,174.64,91.2Z" transform="translate(-13.09 -10.19)" style="fill: #2c597f"/>
    <path d="M203.79,121.54c.05,2.45-.73,4.11-2.68,4.7-2.23.68-3.48-.9-4-2.71a22.91,22.91,0,0,0-10.57-13.15c-1.82-1.11-2.88-2.74-1.42-5s3.35-1.54,5.19-.6C197.41,108.49,202.3,113.92,203.79,121.54Z" transform="translate(-13.09 -10.19)" style="fill: #2c5a80"/>
    <path d="M187.6,130.32c-6.79-.15-13.18-5.95-13.49-12.14-.12-2.64.7-4.72,3.4-5.21s3.36,1.75,3.7,3.7c.73,4.26,3.75,6,7.42,7,2.06.57,3.84,1.25,3.44,3.88S189.71,130.36,187.6,130.32Z" transform="translate(-13.09 -10.19)" style="fill: #2e5b81"/>
    <path d="M159,97.92c-6.84-.17-13.14-5.35-14.26-10.93-.53-2.65-.11-5.27,2.69-6.1s4.09,1.5,4.51,3.9c.75,4.2,3.92,5.27,7.39,6.25,1.95.55,3.87,1.63,3.31,4.15A3.43,3.43,0,0,1,159,97.92Z" transform="translate(-13.09 -10.19)" style="fill: #2c597f"/>
  </g>
</svg>
