<svg id="Layer_1" data-name="Layer 1" xmlns="http://www.w3.org/2000/svg" width="258.31" height="196.39" viewBox="0 0 258.31 196.39">
  <g>
    <path d="M42.56,207.64c-1.59-1.91-4.21-1.46-6.13-2.75-4.72-3.17-6.81-9-4.84-15.39,8-25.78,10.28-52.17,8.91-79a210.37,210.37,0,0,0-8.06-47.85C30.82,57,31.55,52.12,35.7,48,40,43.77,45.38,43.1,51,45a136.72,136.72,0,0,1,19.17,8.22,9.86,9.86,0,0,0,7.58.92c2.83-.75,5.92-.64,8.89-.64q48.56-.06,97.1,0c1,0,2,0,3,0,2.22.06,4.07.83,4.08,3.33s-1.75,3.48-3.89,3.78a31.68,31.68,0,0,1-4.47.1q-45.81,0-91.62,0c-5.27,0-10.64-.64-15.62,2-1.68.87-3.18,0-4.64-.93-6.56-4-13.78-6.51-20.79-9.48-3.24-1.38-6.5-1.64-9.31.93s-1.71,5.43-.89,8.34c11.39,40.44,11.32,81,1.29,121.67a68.61,68.61,0,0,1-2.22,7.1c-.92,2.5-1.11,4.84.77,7,2.15,2.45,4.91,2.64,7.77,1.77a136.68,136.68,0,0,0,23.06-9.15c2.81-1.45,5.17-2.24,8.27-.38s7,2.06,10.63,2.06q52.27,0,104.56-.07c4.82,0,9.66-.41,14-2.82,2.5-1.38,4.44-.18,6.49.93,7.17,3.89,14.86,6.51,22.54,9.14,3,1,6.26,1.84,8.86-.81s1.32-5.49.41-8.39c-7.48-23.84-9.71-48.27-8.23-73.11.16-2.72.84-5.19,4.11-5.1,3.78.11,3.16,3.11,3,5.54-1.21,24.84,1.26,49.23,8.58,73.08,2.62,8.53-.87,14.18-9.75,16.75-.39.11-.66.62-1,.95h-4c-8.58-1.36-16.47-4.85-24.38-8.17a13.38,13.38,0,0,0-9.6-.84,45.65,45.65,0,0,1-13.29,1.55q-49.78-.06-99.55,0c-2.66,0-5.43.41-7.92-.45-6.8-2.35-13-.81-19.15,2.14a98.75,98.75,0,0,1-16.33,5.8Z" transform="translate(-30.85 -11.25)" style="fill: #27567d"/>
    <path d="M246,11.25c-24,.24-43,19.84-43.06,44.3-.05,23.35,19.77,43.05,43.25,43,23.22-.07,43.1-20.45,42.93-44S269,11,246,11.25Zm1,80c-20.44.07-37-16.2-37-36.31a36.11,36.11,0,0,1,36.72-36.37c19.13.07,35.09,16.37,35.11,35.85C281.86,74.26,265.82,91.21,247,91.27Z" transform="translate(-30.85 -11.25)" style="fill: #27567d"/>
    <path d="M271.63,54.61c-.06-10.91-.06-11.15-10.67-11.06-4.5,0-4.13-2.41-4.14-5.32,0-8.74-.65-9.34-9.33-9.26-1,0-2,0-3,0-9.13-.1-9.91.45-9.59,9.32.15,4-.81,5.41-5.1,5.2-9.55-.46-9.71-.08-9.65,9.56,0,.82,0,1.65,0,2.48.05,10.65.05,10.82,10.67,10.69,3.41,0,4.14,1.11,4.15,4.22,0,10.08.2,10.13,10.39,10.13h2c8.88,0,9.54-.44,9.23-9.17-.14-4.07.93-5.9,5.16-5.16a14.66,14.66,0,0,0,2.48,0c6.18,0,7.44-1.34,7.39-7.69C271.62,57.26,271.63,55.93,271.63,54.61ZM260.2,58.7a10.58,10.58,0,0,0-1.49,0c-9,0-9.23.1-9,9.18.08,3.44.25,6.3-4.66,5.68-2.09-.26-3-.89-2.89-3,.07-1.15,0-2.31,0-3.47,0-8.34-.2-8.53-9.08-8.39-1.74-1-5.23,2-6.22-2.15-1.15-4.81,0-6.14,5-6.07.83,0,1.65.06,2.48.08,7.22.19,7.56-.15,7.55-7.44a25.05,25.05,0,0,0,0-3.47c-.46-3.12.89-4,3.89-3.9,2.67.06,4.66.21,4.15,3.62a5.46,5.46,0,0,0,0,1c.11,10.1.11,10.24,10.34,10.14,3.27,0,4.2.85,4.25,4.12C264.56,58.08,263.32,59.1,260.2,58.7Z" transform="translate(-30.85 -11.25)" style="fill: #27567d"/>
  </g>
</svg>
